<svg width="528" height="528" viewBox="0 0 528 528" fill="none" xmlns="http://www.w3.org/2000/svg">
<circle cx="264" cy="264" r="264" fill="#001423"/>
<path d="M240.187 86.0877C229.867 89.5122 231.013 131.176 241.333 165.421C255.093 210.509 253.373 219.07 231.013 219.07C218.973 219.07 207.507 223.636 201.2 230.485C195.467 236.763 187.44 241.9 183.427 241.9C171.96 241.9 141 281.281 141 295.549C141 328.652 186.867 366.892 208.653 351.482C213.813 348.057 228.147 339.496 240.187 332.647C257.387 324.086 261.4 318.949 257.96 311.53C255.667 306.393 252.8 292.125 251.08 280.139C248.213 253.314 264.84 232.768 294.08 227.06C304.4 225.348 313 222.494 313 221.353C313 220.782 306.12 198.523 298.093 172.269C276.88 104.351 259.68 79.2389 240.187 86.0877Z" fill="#FFF5E5"/>
<path d="M289.442 263.072C275.709 274.542 275.709 275.115 286.009 286.585C291.731 292.893 305.464 298.628 316.908 299.775C344.373 302.069 346.662 315.259 321.485 331.317C306.608 341.066 301.458 348.521 298.597 367.447C295.736 385.798 292.875 390.96 284.865 389.239C272.848 386.945 268.843 361.138 278.57 343.36L285.437 330.17L271.704 342.213C230.506 379.49 188.735 388.666 161.269 366.873C141.242 351.389 142.387 359.991 164.13 390.386C193.885 431.677 208.762 441.427 239.089 442C271.132 442 316.336 425.942 344.946 404.15C385 373.755 400.449 303.789 373.556 272.248C355.245 251.028 310.041 246.441 289.442 263.072Z" fill="#FFF5E5"/>
</svg>
